<svg width="107" height="29" viewBox="0 0 107 29" fill="none" xmlns="http://www.w3.org/2000/svg">
<path d="M7.70455 23H1.51705V5.54545H7.75568C9.51136 5.54545 11.0227 5.89489 12.2898 6.59375C13.5568 7.28693 14.5313 8.28409 15.2131 9.58523C15.9006 10.8864 16.2443 12.4432 16.2443 14.2557C16.2443 16.0739 15.9006 17.6364 15.2131 18.9432C14.5313 20.25 13.5511 21.2528 12.2727 21.9517C11 22.6506 9.47727 23 7.70455 23ZM5.20739 19.8381H7.55114C8.64205 19.8381 9.55966 19.6449 10.304 19.2585C11.054 18.8665 11.6165 18.2614 11.9915 17.4432C12.3722 16.6193 12.5625 15.5568 12.5625 14.2557C12.5625 12.9659 12.3722 11.9119 11.9915 11.0938C11.6165 10.2756 11.0568 9.6733 10.3125 9.28693C9.56818 8.90057 8.65057 8.70739 7.55966 8.70739H5.20739V19.8381ZM18.498 23V5.54545H30.2593V8.58807H22.1883V12.7472H29.6542V15.7898H22.1883V19.9574H30.2934V23H18.498ZM42.182 10.5653C42.1139 9.87784 41.8213 9.34375 41.3042 8.96307C40.7872 8.58239 40.0855 8.39204 39.1991 8.39204C38.5968 8.39204 38.0883 8.47727 37.6735 8.64773C37.2588 8.8125 36.9406 9.04261 36.719 9.33807C36.5031 9.63352 36.3951 9.96875 36.3951 10.3438C36.3838 10.6562 36.4491 10.929 36.5911 11.1619C36.7389 11.3949 36.9406 11.5966 37.1963 11.767C37.4519 11.9318 37.7474 12.0767 38.0826 12.2017C38.4178 12.321 38.7758 12.4233 39.1565 12.5085L40.7247 12.8835C41.486 13.054 42.1849 13.2812 42.8213 13.5653C43.4576 13.8494 44.0088 14.1989 44.4747 14.6136C44.9406 15.0284 45.3014 15.517 45.557 16.0795C45.8184 16.642 45.9519 17.2869 45.9576 18.0142C45.9519 19.0824 45.6792 20.0085 45.1394 20.7926C44.6053 21.571 43.8326 22.1761 42.8213 22.608C41.8156 23.0341 40.6025 23.2472 39.182 23.2472C37.773 23.2472 36.5457 23.0312 35.5002 22.5994C34.4605 22.1676 33.648 21.5284 33.0627 20.6818C32.4832 19.8295 32.1792 18.7756 32.1508 17.5199H35.7218C35.7616 18.1051 35.9292 18.5937 36.2247 18.9858C36.5258 19.3722 36.9264 19.6648 37.4264 19.8636C37.932 20.0568 38.5031 20.1534 39.1394 20.1534C39.7644 20.1534 40.307 20.0625 40.7673 19.8807C41.2332 19.6989 41.594 19.446 41.8497 19.1222C42.1053 18.7983 42.2332 18.4261 42.2332 18.0057C42.2332 17.6136 42.1167 17.2841 41.8838 17.017C41.6565 16.75 41.3213 16.5227 40.8781 16.3352C40.4406 16.1477 39.9036 15.9773 39.2673 15.8239L37.3667 15.3466C35.8951 14.9886 34.7332 14.429 33.8809 13.6676C33.0286 12.9062 32.6053 11.8807 32.611 10.5909C32.6053 9.53409 32.8866 8.6108 33.4548 7.82102C34.0286 7.03125 34.8156 6.41477 35.8156 5.97159C36.8156 5.52841 37.9519 5.30682 39.2247 5.30682C40.5201 5.30682 41.6508 5.52841 42.6167 5.97159C43.5883 6.41477 44.344 7.03125 44.8838 7.82102C45.4235 8.6108 45.7019 9.52557 45.719 10.5653H42.182ZM46.9371 5.54545H51.0707L55.0508 13.0625H55.2212L59.2013 5.54545H63.3349L56.9684 16.8295V23H53.3036V16.8295L46.9371 5.54545ZM64.8705 23V5.54545H71.7568C73.075 5.54545 74.2 5.78125 75.1318 6.25284C76.0693 6.71875 76.7824 7.38068 77.2711 8.23864C77.7654 9.09091 78.0125 10.0937 78.0125 11.2472C78.0125 12.4062 77.7625 13.4034 77.2625 14.2386C76.7625 15.0682 76.0381 15.7045 75.0892 16.1477C74.1461 16.5909 73.004 16.8125 71.6631 16.8125H67.0523V13.8466H71.0665C71.7711 13.8466 72.3563 13.75 72.8222 13.5568C73.2881 13.3636 73.6347 13.0739 73.862 12.6875C74.0949 12.3011 74.2114 11.821 74.2114 11.2472C74.2114 10.6676 74.0949 10.179 73.862 9.78125C73.6347 9.38352 73.2853 9.08239 72.8137 8.87784C72.3478 8.66761 71.7597 8.5625 71.0495 8.5625H68.5608V23H64.8705ZM74.2966 15.0568L78.6347 23H74.5608L70.3165 15.0568H74.2966ZM80.1405 23V5.54545H91.9018V8.58807H83.8308V12.7472H91.2967V15.7898H83.8308V19.9574H91.9359V23H80.1405Z" fill="#FAFAFA" style="mix-blend-mode:exclusion"/>
<path d="M99.7727 9.79545V5.60227H101.898C102.068 5.60227 102.254 5.65151 102.455 5.75C102.655 5.8447 102.826 5.99242 102.966 6.19318C103.11 6.39015 103.182 6.64015 103.182 6.94318C103.182 7.25 103.108 7.51136 102.96 7.72727C102.813 7.93939 102.633 8.10038 102.42 8.21023C102.212 8.32008 102.015 8.375 101.83 8.375H100.295V7.69318H101.545C101.67 7.69318 101.805 7.63068 101.949 7.50568C102.097 7.38068 102.17 7.19318 102.17 6.94318C102.17 6.68561 102.097 6.51136 101.949 6.42045C101.805 6.32955 101.678 6.28409 101.568 6.28409H100.693V9.79545H99.7727ZM102.307 7.81818L103.352 9.79545H102.341L101.318 7.81818H102.307ZM101.364 12.2955C100.735 12.2955 100.146 12.178 99.5966 11.9432C99.0473 11.7083 98.5644 11.3826 98.1477 10.9659C97.7311 10.5492 97.4053 10.0663 97.1705 9.51705C96.9356 8.9678 96.8182 8.37879 96.8182 7.75C96.8182 7.12121 96.9356 6.5322 97.1705 5.98295C97.4053 5.43371 97.7311 4.95076 98.1477 4.53409C98.5644 4.11742 99.0473 3.79167 99.5966 3.55682C100.146 3.32197 100.735 3.20455 101.364 3.20455C101.992 3.20455 102.581 3.32197 103.131 3.55682C103.68 3.79167 104.163 4.11742 104.58 4.53409C104.996 4.95076 105.322 5.43371 105.557 5.98295C105.792 6.5322 105.909 7.12121 105.909 7.75C105.909 8.37879 105.792 8.9678 105.557 9.51705C105.322 10.0663 104.996 10.5492 104.58 10.9659C104.163 11.3826 103.68 11.7083 103.131 11.9432C102.581 12.178 101.992 12.2955 101.364 12.2955ZM101.364 11.2045C102 11.2045 102.58 11.0492 103.102 10.7386C103.625 10.428 104.042 10.0114 104.352 9.48864C104.663 8.96591 104.818 8.38636 104.818 7.75C104.818 7.11364 104.663 6.53409 104.352 6.01136C104.042 5.48864 103.625 5.07197 103.102 4.76136C102.58 4.45076 102 4.29545 101.364 4.29545C100.727 4.29545 100.148 4.45076 99.625 4.76136C99.1023 5.07197 98.6856 5.48864 98.375 6.01136C98.0644 6.53409 97.9091 7.11364 97.9091 7.75C97.9091 8.38636 98.0644 8.96591 98.375 9.48864C98.6856 10.0114 99.1023 10.428 99.625 10.7386C100.148 11.0492 100.727 11.2045 101.364 11.2045Z" fill="#FAFAFA" style="mix-blend-mode:exclusion"/>
</svg>
